HIERARCHY
ROOT Hips
{
	OFFSET 0.000000 0.000000 0.000000
	CHANNELS 6 Xposition Yposition Zposition Xrotation Yrotation Zrotation
	JOINT Spine
	{
		OFFSET 0.000000 0.053497 0.080245
		CHANNELS 3 Xrotation Yrotation Zrotation
		JOINT Spine1
		{
			OFFSET 0.000000 0.018579 0.105368
			CHANNELS 3 Xrotation Yrotation Zrotation
			JOINT Spine2
			{
				OFFSET 0.000000 0.009325 0.106586
				CHANNELS 3 Xrotation Yrotation Zrotation
				JOINT Spine3
				{
					OFFSET 0.000000 0.000000 0.106993
					CHANNELS 3 Xrotation Yrotation Zrotation
					JOINT Neck
					{
						OFFSET 0.000000 -0.040122 0.280858
						CHANNELS 3 Xrotation Yrotation Zrotation
						JOINT Head
						{
							OFFSET 0.000000 -0.025546 0.144881
							CHANNELS 3 Xrotation Yrotation Zrotation
							End Site
							{
								OFFSET 0.000000 0.000000 0.000000
							}
						}
					}
					JOINT RightShoulder
					{
						OFFSET -0.032541 -0.054234 0.175720
						CHANNELS 3 Xrotation Yrotation Zrotation
						JOINT RightArm
						{
							OFFSET -0.161619 0.000000 0.000000
							CHANNELS 3 Xrotation Yrotation Zrotation
							JOINT RightForeArm
							{
								OFFSET -0.257104 0.000000 0.000000
								CHANNELS 3 Xrotation Yrotation Zrotation
								JOINT RightHand
								{
									OFFSET -0.273485 0.000000 0.000000
									CHANNELS 3 Xrotation Yrotation Zrotation
									JOINT RightHandEnd
									{
										OFFSET -0.070844 0.000000 0.000000
										CHANNELS 3 Xrotation Yrotation Zrotation
										End Site
										{
											OFFSET 0.000000 0.000000 0.000000
										}
									}
									JOINT RightHandThumb1
									{
										OFFSET -0.028338 -0.047230 -0.018892
										CHANNELS 3 Xrotation Yrotation Zrotation
										End Site
										{
											OFFSET 0.000000 0.000000 0.000000
										}
									}
								}
							}
						}
					}
					JOINT LeftShoulder
					{
						OFFSET 0.032541 -0.054234 0.175720
						CHANNELS 3 Xrotation Yrotation Zrotation
						JOINT LeftArm
						{
							OFFSET 0.161619 0.000000 0.000000
							CHANNELS 3 Xrotation Yrotation Zrotation
							JOINT LeftForeArm
							{
								OFFSET 0.257104 0.000000 0.000000
								CHANNELS 3 Xrotation Yrotation Zrotation
								JOINT LeftHand
								{
									OFFSET 0.273485 0.000000 0.000000
									CHANNELS 3 Xrotation Yrotation Zrotation
									JOINT LeftHandEnd
									{
										OFFSET 0.070844 0.000000 0.000000
										CHANNELS 3 Xrotation Yrotation Zrotation
										End Site
										{
											OFFSET 0.000000 0.000000 0.000000
										}
									}
									JOINT LeftHandThumb1
									{
										OFFSET 0.028338 -0.047230 -0.018892
										CHANNELS 3 Xrotation Yrotation Zrotation
										End Site
										{
											OFFSET 0.000000 0.000000 0.000000
										}
									}
								}
							}
						}
					}
				}
			}
		}
	}
	JOINT RightUpLeg
	{
		OFFSET -0.096537 0.000000 -0.028202
		CHANNELS 3 Xrotation Yrotation Zrotation
		JOINT RightLeg
		{
			OFFSET 0.000000 0.000000 -0.431842
			CHANNELS 3 Xrotation Yrotation Zrotation
			JOINT RightFoot
			{
				OFFSET 0.000000 0.000000 -0.456398
				CHANNELS 3 Xrotation Yrotation Zrotation
				JOINT RightToeBase
				{
					OFFSET 0.000000 -0.128905 -0.046918
					CHANNELS 3 Xrotation Yrotation Zrotation
					End Site
					{
						OFFSET 0.000000 0.000000 0.000000
					}
				}
			}
		}
	}
	JOINT LeftUpLeg
	{
		OFFSET 0.096537 0.000000 -0.028202
		CHANNELS 3 Xrotation Yrotation Zrotation
		JOINT LeftLeg
		{
			OFFSET 0.000000 0.000000 -0.431842
			CHANNELS 3 Xrotation Yrotation Zrotation
			JOINT LeftFoot
			{
				OFFSET 0.000000 0.000000 -0.456398
				CHANNELS 3 Xrotation Yrotation Zrotation
				JOINT LeftToeBase
				{
					OFFSET 0.000000 -0.128905 -0.046918
					CHANNELS 3 Xrotation Yrotation Zrotation
					End Site
					{
						OFFSET 0.000000 0.000000 0.000000
					}
				}
			}
		}
	}
}
MOTION
Frames: 11
Frame Time: 0.033333
0.057295 -0.473324 0.953935 0.047600 -3.430300 -160.099900 0.510700 -2.562700 0.577200 0.470600 -1.375100 -0.041400 3.807800 -0.816800 1.209200 2.032600 -0.076900 0.290700 13.012900 2.306200 -3.881300 -4.705000 0.102600 -4.765000 1.353200 -4.233900 4.475700 50.525900 -47.825000 42.118700 0.000000 0.000100 57.870900 -7.691200 -6.141900 -2.378600 0.000000 0.000000 0.000000 0.000000 0.000000 0.000000 1.496200 9.934700 -0.133800 28.869900 59.417900 -22.262700 0.000000 0.000000 -39.622700 -8.302900 -12.739200 3.027600 0.000000 0.000000 0.000000 0.000000 0.000000 0.000000 -16.731700 -2.046200 -6.621600 23.460400 0.000000 0.000000 -6.833600 -7.466800 -6.655200 -0.278100 0.000000 0.000000 -18.740000 0.596600 1.299100 41.046500 0.000000 0.000000 -16.500700 23.271800 9.791600 8.953100 0.000000 0.000000 
0.056891 -0.461907 0.955578 0.552700 -3.674800 -159.019400 0.880300 -3.164600 0.902000 0.617000 -1.463800 -0.008100 3.854700 -0.874900 1.836600 2.055700 -0.211600 0.555300 13.153400 2.251700 -4.116100 -4.872400 -0.191100 -5.142800 1.281300 -4.125900 5.162700 51.371800 -46.629300 43.535400 0.000000 0.000100 58.982800 -8.029200 -6.443600 -2.195400 0.000000 0.000000 0.000000 0.000000 0.000000 0.000000 1.635300 9.792400 0.512900 30.287600 60.231800 -23.554900 0.000000 0.000000 -38.777100 -8.082000 -12.245500 3.205000 0.000000 0.000000 0.000000 0.000000 0.000000 0.000000 -14.858100 -2.584800 -7.279600 22.148000 0.000000 0.000000 -7.394100 -7.302200 -7.219800 -0.152700 0.000000 0.000000 -20.657900 -0.937800 2.274900 44.939100 0.000000 0.000000 -14.728400 28.078800 8.989100 7.258300 0.000000 0.000000 
0.056170 -0.451089 0.957684 0.837900 -3.612200 -157.211400 1.152800 -3.405400 1.097000 0.724600 -1.425700 0.015000 3.891100 -0.860200 2.111300 2.085700 -0.290500 0.681300 13.344200 1.838600 -4.401400 -5.043700 -0.646500 -5.440500 1.057200 -4.186600 5.544900 52.109200 -45.782600 45.311500 0.000000 0.000100 59.669900 -7.764900 -6.339100 -2.029400 0.000000 0.000000 0.000000 0.000000 0.000000 0.000000 1.805400 9.686300 1.022100 31.752700 60.512600 -24.671500 0.000000 0.000000 -37.834500 -7.961400 -11.595700 3.586100 0.000000 0.000000 0.000000 0.000000 0.000000 0.000000 -13.186600 -2.646700 -8.380600 20.984000 0.000000 0.000000 -7.816500 -7.105800 -7.849500 -0.377400 0.000000 0.000000 -22.128100 -1.822900 2.538000 46.567300 0.000000 0.000000 -15.992600 30.017100 10.602900 6.509200 0.000000 0.000000 
0.054191 -0.440898 0.959896 0.823900 -3.299600 -154.928800 1.249500 -3.445700 1.202600 0.737600 -1.357000 0.036300 3.983100 -0.653000 2.241100 2.132600 -0.266200 0.656700 13.483200 1.276400 -4.763300 -5.145700 -1.243400 -5.739200 0.867400 -4.290600 5.647700 52.568800 -45.485500 47.206100 0.000000 0.000100 60.064700 -7.637600 -5.932300 -1.967900 0.000000 0.000000 0.000000 0.000000 0.000000 0.000000 1.934200 9.690500 1.341700 33.073500 60.375900 -25.492500 0.000000 0.000000 -36.583500 -8.144000 -11.232500 3.992300 0.000000 0.000000 0.000000 0.000000 0.000000 0.000000 -11.757700 -2.265000 -9.689800 19.985100 0.000000 0.000000 -8.266100 -6.727000 -8.432400 -0.397700 0.000000 0.000000 -23.130500 -1.991600 2.764800 45.651700 0.000000 0.000000 -19.401400 27.474600 14.568600 6.096100 0.000000 0.000000 
0.051714 -0.430967 0.961791 0.740200 -2.884100 -152.576500 1.377900 -3.395100 1.289200 0.758000 -1.287900 0.072400 4.028200 -0.321800 2.457200 2.158400 -0.212600 0.605800 13.585400 0.784200 -5.184900 -5.230600 -1.843400 -6.119800 0.761000 -4.286000 5.689900 52.820200 -45.854100 48.969400 0.000000 0.000100 60.237000 -8.536700 -5.343100 -1.851200 0.000000 0.000000 0.000000 0.000000 0.000000 0.000000 1.985700 9.714800 1.554900 34.403500 60.035300 -26.417500 0.000000 0.000000 -34.716800 -8.544800 -11.225300 4.247300 0.000000 0.000000 0.000000 0.000000 0.000000 0.000000 -10.337200 -1.862600 -10.658400 19.025300 0.000000 0.000000 -8.949300 -6.301900 -9.377000 -0.204900 0.000000 0.000000 -23.543400 -2.018500 3.696400 42.525300 0.000000 0.000000 -21.941400 22.706400 19.247900 5.094500 0.000000 0.000000 
0.049604 -0.420096 0.963051 0.904100 -2.632600 -149.992400 1.629400 -3.379200 1.367200 0.836800 -1.219900 0.106300 3.968400 -0.126300 2.626100 2.148700 -0.215700 0.618500 13.734200 0.431700 -5.653600 -5.331500 -2.235200 -6.616500 0.701000 -4.212700 5.698200 53.027700 -46.554000 50.416500 0.000000 0.000100 60.217400 -10.230500 -4.564100 -1.514900 0.000000 0.000000 0.000000 0.000000 0.000000 0.000000 1.953400 9.638200 1.711900 35.755800 59.731000 -27.597100 0.000000 0.000000 -32.223500 -8.677500 -11.349600 4.538800 0.000000 0.000000 0.000000 0.000000 0.000000 0.000000 -8.671000 -1.893400 -11.686700 17.981100 0.000000 0.000000 -9.673100 -5.843200 -10.690300 -0.191400 0.000000 0.000000 -23.381300 -2.388000 5.439300 38.103300 0.000000 0.000000 -22.790700 18.271500 24.080500 3.468500 0.000000 0.000000 
0.046848 -0.407378 0.963498 1.314500 -2.657100 -146.644800 1.751000 -3.461200 1.394700 0.849500 -1.156900 0.102700 3.941900 -0.216500 2.423900 2.157000 -0.265100 0.642400 13.946200 0.166500 -6.176700 -5.337100 -2.361300 -7.195500 0.625200 -4.277800 5.508500 53.291000 -47.076100 51.431700 0.000000 0.000100 59.965900 -11.771000 -3.603200 -1.145300 0.000000 0.000000 0.000000 0.000000 0.000000 0.000000 1.863200 9.506600 1.794500 36.754200 59.601300 -28.547800 0.000000 0.000000 -29.527700 -8.306800 -11.616200 5.281000 0.000000 0.000000 0.000000 0.000000 0.000000 0.000000 -6.705200 -2.345100 -13.721200 16.751500 0.000000 0.000000 -10.354900 -5.301300 -11.864500 -0.222800 0.000000 0.000000 -22.942100 -2.868900 7.823100 33.358000 0.000000 0.000000 -22.085200 14.320600 28.650800 1.651900 0.000000 0.000000 
0.042123 -0.393428 0.962906 1.958700 -2.697000 -142.616500 1.834200 -3.637500 1.363000 0.808000 -1.094400 0.082600 3.942300 -0.449700 1.927200 2.190100 -0.311400 0.626300 14.176900 -0.042800 -6.752100 -5.257600 -2.348700 -7.799300 0.560500 -4.498700 5.106700 53.590600 -47.304600 52.070200 0.000000 0.000100 59.332900 -12.719400 -2.643300 -1.073100 0.000000 0.000000 0.000000 0.000000 0.000000 0.000000 1.754700 9.329300 1.798600 37.121700 59.799000 -28.877100 0.000000 0.000000 -27.095000 -7.945600 -12.274100 6.513000 0.000000 0.000000 0.000000 0.000000 0.000000 0.000000 -4.429900 -2.999800 -16.501600 15.489800 0.000000 0.000000 -11.278100 -4.917200 -12.843600 -0.100700 0.000000 0.000000 -22.307100 -3.083000 11.192700 29.162600 0.000000 0.000000 -19.422900 10.645400 31.460300 0.306400 0.000000 0.000000 
0.035883 -0.379151 0.961169 3.034800 -2.229400 -138.660500 2.494200 -3.769800 1.346700 0.974600 -1.042100 0.083000 3.745300 -0.613500 1.625800 2.169100 -0.363900 0.669400 14.425300 -0.228500 -7.384300 -5.313900 -2.308100 -8.423700 0.573300 -4.634200 4.683400 53.887400 -47.607400 52.486100 0.000000 0.000100 58.205300 -13.031900 -1.907000 -1.277000 0.000000 0.000000 0.000000 0.000000 0.000000 0.000000 1.690400 8.908700 1.767200 37.122500 60.449700 -29.003300 0.000000 0.000000 -25.045400 -8.318800 -13.328200 7.754600 0.000000 0.000000 0.000000 0.000000 0.000000 0.000000 -1.782200 -3.749500 -18.506300 14.749400 0.000000 0.000000 -12.586200 -4.775200 -14.408500 -0.181500 0.000000 0.000000 -20.964400 -3.046900 16.112400 26.128200 0.000000 0.000000 -15.481900 7.571000 31.355500 0.854100 0.000000 0.000000 
0.029177 -0.363212 0.958540 4.259400 -1.197900 -134.732500 3.490800 -3.537300 1.300300 1.281700 -0.857600 0.109000 3.494100 -0.831300 1.500700 2.119900 -0.528200 0.896100 14.770100 -0.599700 -8.170400 -5.460000 -2.299500 -9.126800 0.689100 -4.799500 4.148900 54.088200 -48.164800 52.609300 0.000000 0.000100 56.735400 -12.406900 -1.284300 -1.569900 0.000000 0.000000 0.000000 0.000000 0.000000 0.000000 1.669400 8.218500 1.639100 37.006500 61.272900 -29.169900 0.000000 0.000000 -23.480500 -9.491600 -14.294700 8.565700 0.000000 0.000000 0.000000 0.000000 0.000000 0.000000 0.942400 -4.592100 -19.397800 14.763800 0.000000 0.000000 -14.136200 -4.401100 -17.190500 -0.572700 0.000000 0.000000 -18.864800 -2.819700 21.583500 24.307900 0.000000 0.000000 -12.394500 5.090400 28.738200 4.217000 0.000000 0.000000 
0.021311 -0.343400 0.955286 4.312700 -0.431700 -129.390900 3.049400 -2.374600 0.959100 1.060300 -0.227300 0.109800 3.833300 -1.478200 0.656400 2.271900 -0.896100 1.282900 15.280200 -1.491900 -9.322600 -5.161500 -2.489800 -9.924100 0.773700 -5.773700 2.982900 54.014000 -48.669300 51.994000 0.000000 0.000100 55.317500 -10.768100 -0.395800 -2.120300 0.000000 0.000000 0.000000 0.000000 0.000000 0.000000 1.587000 7.694100 1.220900 36.585900 61.404900 -28.684900 0.000000 0.000000 -22.761700 -10.875900 -14.572100 8.916000 0.000000 0.000000 0.000000 0.000000 0.000000 0.000000 2.510100 -5.282200 -20.945700 15.273400 0.000000 0.000000 -16.092200 -3.687000 -20.899600 -0.817700 0.000000 0.000000 -17.435800 -1.832200 24.585600 23.282300 0.000000 0.000000 -11.753300 3.372800 24.966300 8.656700 0.000000 0.000000 
